<svg width="28" height="23" viewBox="0 0 28 23" fill="none" xmlns="http://www.w3.org/2000/svg">
<path d="M13.5458 6.37526L4.63862 13.7114V21.6291C4.63862 21.8341 4.72006 22.0307 4.86502 22.1757C5.00999 22.3207 5.2066 22.4021 5.41161 22.4021L10.8254 22.3881C11.0297 22.3871 11.2253 22.3052 11.3695 22.1603C11.5136 22.0155 11.5945 21.8194 11.5945 21.6151V16.9912C11.5945 16.7862 11.6759 16.5896 11.8209 16.4446C11.9659 16.2997 12.1625 16.2182 12.3675 16.2182H15.4594C15.6644 16.2182 15.861 16.2997 16.006 16.4446C16.151 16.5896 16.2324 16.7862 16.2324 16.9912V21.6117C16.2321 21.7134 16.2518 21.8142 16.2905 21.9083C16.3293 22.0023 16.3861 22.0878 16.458 22.1599C16.5298 22.2319 16.6151 22.2891 16.709 22.3281C16.803 22.3671 16.9037 22.3871 17.0054 22.3871L22.4172 22.4021C22.6222 22.4021 22.8189 22.3207 22.9638 22.1757C23.1088 22.0307 23.1902 21.8341 23.1902 21.6291V13.706L14.285 6.37526C14.1803 6.29087 14.0499 6.24485 13.9154 6.24485C13.7809 6.24485 13.6505 6.29087 13.5458 6.37526ZM27.6155 11.3615L23.5767 8.03234V1.34072C23.5767 1.18697 23.5156 1.03951 23.4069 0.930788C23.2982 0.822066 23.1507 0.760986 22.997 0.760986H20.2915C20.1378 0.760986 19.9903 0.822066 19.8816 0.930788C19.7729 1.03951 19.7118 1.18697 19.7118 1.34072V4.84862L15.3865 1.29C14.9714 0.948425 14.4505 0.761669 13.913 0.761669C13.3754 0.761669 12.8546 0.948425 12.4395 1.29L0.210396 11.3615C0.151691 11.41 0.103123 11.4696 0.0674649 11.5369C0.0318072 11.6042 0.00975928 11.6779 0.00258087 11.7537C-0.00459754 11.8295 0.00323429 11.906 0.0256288 11.9788C0.0480234 12.0516 0.0845418 12.1193 0.133097 12.1779L1.36504 13.6756C1.41346 13.7345 1.47302 13.7832 1.54031 13.8191C1.6076 13.8549 1.6813 13.8771 1.75718 13.8844C1.83306 13.8917 1.90964 13.884 1.98254 13.8617C2.05543 13.8394 2.12321 13.8029 2.18199 13.7544L13.5458 4.39449C13.6505 4.3101 13.7809 4.26408 13.9154 4.26408C14.0499 4.26408 14.1803 4.3101 14.285 4.39449L25.6493 13.7544C25.7079 13.8029 25.7756 13.8394 25.8484 13.8618C25.9212 13.8842 25.9977 13.892 26.0735 13.8849C26.1493 13.8777 26.223 13.8556 26.2903 13.82C26.3576 13.7843 26.4172 13.7358 26.4657 13.6771L27.6977 12.1794C27.7462 12.1204 27.7825 12.0524 27.8047 11.9793C27.8268 11.9061 27.8343 11.8294 27.8266 11.7534C27.819 11.6774 27.7964 11.6036 27.7602 11.5364C27.724 11.4691 27.6748 11.4097 27.6155 11.3615Z" fill="#C7D1D6"/>
</svg>
