<svg width="25" height="26" viewBox="0 0 25 26" fill="none" xmlns="http://www.w3.org/2000/svg">
<path d="M9.375 10.5916C9.375 9.72876 8.67529 9.02905 7.8125 9.02905H7.03125C5.30518 9.02905 3.90625 10.428 3.90625 12.1541V14.4978C3.90625 16.2239 5.30518 17.6228 7.03125 17.6228H7.8125C8.67529 17.6228 9.375 16.9231 9.375 16.0603V10.5916ZM17.9688 17.6228C19.6948 17.6228 21.0938 16.2239 21.0938 14.4978V12.1541C21.0938 10.428 19.6948 9.02905 17.9688 9.02905H17.1875C16.3247 9.02905 15.625 9.72876 15.625 10.5916V16.0603C15.625 16.9231 16.3247 17.6228 17.1875 17.6228H17.9688ZM12.5 0.435303C5.52637 0.435303 0.223633 6.23755 0 12.9353V13.7166C0 14.1482 0.349609 14.4978 0.78125 14.4978H1.5625C1.99414 14.4978 2.34375 14.1482 2.34375 13.7166V12.9353C2.34375 7.33521 6.8999 2.77905 12.5 2.77905C18.1001 2.77905 22.6562 7.33521 22.6562 12.9353H22.6504C22.6543 13.054 22.6562 21.0271 22.6562 21.0271C22.6562 22.1672 21.7319 23.0916 20.5918 23.0916H15.625C15.625 21.7971 14.5757 20.7478 13.2812 20.7478H11.7188C10.4243 20.7478 9.375 21.7971 9.375 23.0916C9.375 24.386 10.4243 25.4353 11.7188 25.4353H20.5918C23.0264 25.4353 25 23.4617 25 21.0271V12.9353C24.7764 6.23755 19.4736 0.435303 12.5 0.435303Z" fill="#C7D1D6"/>
</svg>
