<svg width="25" height="21" viewBox="0 0 25 21" fill="none" xmlns="http://www.w3.org/2000/svg">
<path d="M8.75 10.1958C11.5117 10.1958 13.75 7.95752 13.75 5.1958C13.75 2.43408 11.5117 0.195801 8.75 0.195801C5.98828 0.195801 3.75 2.43408 3.75 5.1958C3.75 7.95752 5.98828 10.1958 8.75 10.1958ZM12.25 11.4458H11.5977C10.7305 11.8442 9.76562 12.0708 8.75 12.0708C7.73438 12.0708 6.77344 11.8442 5.90234 11.4458H5.25C2.35156 11.4458 0 13.7974 0 16.6958V18.3208C0 19.356 0.839844 20.1958 1.875 20.1958H12.6133C12.5195 19.9302 12.4805 19.6489 12.5117 19.3638L12.7773 16.9849L12.8242 16.5513L13.1328 16.2427L16.1523 13.2231C15.1953 12.1411 13.8086 11.4458 12.25 11.4458ZM14.0195 17.1216L13.7539 19.5044C13.7109 19.9028 14.0469 20.2388 14.4414 20.1919L16.8203 19.9263L22.207 14.5396L19.4062 11.7388L14.0195 17.1216ZM24.7266 10.6997L23.2461 9.21924C22.8828 8.85596 22.2891 8.85596 21.9258 9.21924L20.4492 10.6958L20.2891 10.856L23.0938 13.6567L24.7266 12.0239C25.0898 11.6567 25.0898 11.0669 24.7266 10.6997Z" fill="#C7D1D6"/>
</svg>
