<svg width="29" height="26" viewBox="0 0 29 26" fill="none" xmlns="http://www.w3.org/2000/svg">
<path d="M28.8371 14.5454L26.5486 11.7177H27.426C27.6841 11.7177 27.9124 11.5615 28.0213 11.3096C28.1301 11.0583 28.0943 10.7702 27.9273 10.5581L25.6892 7.71784H26.5168C26.7774 7.71784 27.0123 7.55066 27.1143 7.29254C27.2152 7.03849 27.1676 6.74287 26.9929 6.54006L23.834 2.86894C23.6613 2.66738 23.339 2.66738 23.166 2.86894L20.0068 6.54006C19.8321 6.74287 19.7848 7.03849 19.8854 7.29254C19.9874 7.55066 20.2226 7.71784 20.4832 7.71784H21.3108L19.0724 10.5587C18.906 10.7705 18.8702 11.0583 18.9787 11.3099C19.0876 11.5615 19.3156 11.7177 19.574 11.7177H20.4514L18.1629 14.5454C17.991 14.7576 17.952 15.0482 18.0609 15.3035C18.1683 15.5551 18.4046 15.7176 18.6628 15.7176H22.5833V16.4816L21.7156 17.994C21.5632 18.3265 21.7849 18.7178 22.1255 18.7178H24.8745C25.2151 18.7178 25.4368 18.3265 25.2844 17.994L24.4167 16.4816V15.7176H28.3372C28.5954 15.7176 28.8317 15.5551 28.9391 15.3035C29.048 15.0482 29.009 14.7576 28.8371 14.5454Z" fill="#C7D1D6"/>
<path d="M11 13.2178C12.6671 13.2178 14.2659 12.5593 15.4447 11.3872C16.6235 10.2151 17.2857 8.62538 17.2857 6.96777C17.2857 5.31017 16.6235 3.72046 15.4447 2.54836C14.2659 1.37625 12.6671 0.717773 11 0.717773C9.33292 0.717773 7.73413 1.37625 6.55533 2.54836C5.37653 3.72046 4.71429 5.31017 4.71429 6.96777C4.71429 8.62538 5.37653 10.2151 6.55533 11.3872C7.73413 12.5593 9.33292 13.2178 11 13.2178ZM6.28571 15.9131C2.65179 16.9727 0 20.3125 0 24.2676C0 25.0684 0.653125 25.7178 1.45848 25.7178H20.5415C21.3469 25.7178 22 25.0684 22 24.2676C22 20.3125 19.3482 16.9727 15.7143 15.9131V18.3936C17.0696 18.7402 18.0714 19.9658 18.0714 21.4209V23.374C18.0714 23.8037 17.7179 24.1553 17.2857 24.1553H16.5C16.0679 24.1553 15.7143 23.8037 15.7143 23.374C15.7143 22.9443 16.0679 22.5928 16.5 22.5928V21.4209C16.5 20.5566 15.7978 19.8584 14.9286 19.8584C14.0594 19.8584 13.3571 20.5566 13.3571 21.4209V22.5928C13.7893 22.5928 14.1429 22.9443 14.1429 23.374C14.1429 23.8037 13.7893 24.1553 13.3571 24.1553H12.5714C12.1393 24.1553 11.7857 23.8037 11.7857 23.374V21.4209C11.7857 19.9658 12.7875 18.7402 14.1429 18.3936V15.6055C13.8482 15.5762 13.5487 15.5615 13.2442 15.5615H8.7558C8.45134 15.5615 8.15179 15.5762 7.85714 15.6055V18.7988C8.99152 19.1357 9.82143 20.1807 9.82143 21.4209C9.82143 22.9297 8.58884 24.1553 7.07143 24.1553C5.55402 24.1553 4.32143 22.9297 4.32143 21.4209C4.32143 20.1807 5.15134 19.1357 6.28571 18.7988V15.9131ZM7.07143 22.5928C7.38401 22.5928 7.68378 22.4693 7.9048 22.2495C8.12583 22.0298 8.25 21.7317 8.25 21.4209C8.25 21.1101 8.12583 20.812 7.9048 20.5923C7.68378 20.3725 7.38401 20.249 7.07143 20.249C6.75885 20.249 6.45908 20.3725 6.23805 20.5923C6.01703 20.812 5.89286 21.1101 5.89286 21.4209C5.89286 21.7317 6.01703 22.0298 6.23805 22.2495C6.45908 22.4693 6.75885 22.5928 7.07143 22.5928Z" fill="#C7D1D6"/>
</svg>
