<svg width="123" height="48" viewBox="0 0 123 48" fill="none" xmlns="http://www.w3.org/2000/svg">
<path d="M1.54154 24.6843C0.80984 24.6843 0.216797 24.0928 0.216797 23.3629V17.5942C0.216797 16.4665 0.660881 15.4404 1.3839 14.6807C0.660881 13.921 0.216797 12.8949 0.216797 11.7673V7.7012C0.216797 3.75946 3.43151 0.552734 7.38292 0.552734H23.5519C24.2836 0.552734 24.8766 1.1443 24.8766 1.87419C24.8766 2.60407 24.2836 3.19564 23.5519 3.19564H7.38292C4.89241 3.19564 2.86628 5.21687 2.86628 7.7012V11.7673C2.86628 12.6452 3.58223 13.3592 4.46216 13.3592H14.9004C15.6321 13.3592 16.2251 13.9508 16.2251 14.6807C16.2251 15.4105 15.6321 16.0021 14.9004 16.0021H4.46216C3.58209 16.0021 2.86628 16.7163 2.86628 17.5942V23.3629C2.86628 24.0926 2.27324 24.6843 1.54154 24.6843Z" fill="#DEDC00"/>
<path d="M22.4192 45.1161C22.4048 45.1161 22.3905 45.116 22.3761 45.116L17.8017 45.1009C16.6732 45.0974 15.6462 44.651 14.8869 43.9277C14.1298 44.6415 13.1111 45.0816 11.9921 45.0865L7.43297 45.1059C5.50929 45.1206 3.70087 44.3835 2.33506 43.0315C0.969103 41.6792 0.216797 39.8773 0.216797 37.9576V28.0584C0.216797 27.3285 0.80984 26.737 1.54154 26.737C2.27324 26.737 2.86628 27.3285 2.86628 28.0584V37.9576C2.86628 39.1674 3.34039 40.3033 4.20133 41.1555C5.05388 41.9994 6.18227 42.463 7.38204 42.463C7.39382 42.463 7.40559 42.463 7.41722 42.4628L11.9808 42.4434C12.8568 42.4398 13.5696 41.7259 13.5701 40.8523L13.5757 28.0577C13.576 27.3281 14.169 26.7368 14.9004 26.7368C14.9004 26.7368 14.9007 26.7368 14.901 26.7368C15.6327 26.7371 16.2254 27.329 16.2251 28.0589L16.2196 40.8653C16.2193 41.7407 16.9327 42.455 17.8101 42.458L22.388 42.4731C22.3971 42.4731 22.4063 42.4732 22.4154 42.4732C23.62 42.4732 24.7496 42.0085 25.6023 41.1628C26.4614 40.3108 26.9345 39.1762 26.9345 37.9677V28.0584C26.9345 27.3285 27.5276 26.737 28.2593 26.737C28.991 26.737 29.584 27.3285 29.584 28.0584V37.9677C29.584 39.8851 28.8333 41.6852 27.4703 43.0371C26.1175 44.3788 24.3251 45.1161 22.4192 45.1161Z" fill="#F07F3C"/>
<path d="M37.8622 45.0492H30.4785C29.7468 45.0492 29.1538 44.4577 29.1538 43.7278C29.1538 42.9979 29.7468 42.4063 30.4785 42.4063H37.8622C40.3527 42.4063 42.3788 40.3851 42.3788 37.9008V25.0015C42.3788 22.5172 40.3527 20.4959 37.8622 20.4959H33.8501C33.1184 20.4959 32.5254 19.9044 32.5254 19.1745C32.5254 18.4446 33.1184 17.853 33.8501 17.853H37.8622C40.3527 17.853 42.3788 15.8319 42.3788 13.3476V7.70105C42.3788 5.21672 40.3526 3.19549 37.8622 3.19549H29.5836V23.0311C29.5836 23.7609 28.9905 24.3525 28.2588 24.3525C27.5271 24.3525 26.9341 23.7609 26.9341 23.0311V1.87419C26.9341 1.1443 27.5271 0.552734 28.2588 0.552734H37.8622C41.8135 0.552734 45.0283 3.75946 45.0283 7.7012V13.3478C45.0283 15.7491 43.8352 17.8778 42.0091 19.1746C43.8352 20.4716 45.0283 22.6001 45.0283 25.0016V37.9011C45.0283 41.8425 41.8136 45.0492 37.8622 45.0492Z" fill="#476877"/>
<path d="M64.6339 2.17959C64.964 2.17959 65.225 2.422 65.225 2.75134C65.225 3.08126 64.9642 3.32367 64.6339 3.32367H59.5589V7.69268H63.4869C63.8171 7.69268 64.0775 7.9351 64.0775 8.26443C64.0775 8.59377 63.8171 8.83677 63.4869 8.83677H59.5589V13.6216C59.5589 13.9509 59.3153 14.2113 58.9852 14.2113C58.655 14.2113 58.412 13.9511 58.412 13.6216V2.7691C58.412 2.45709 58.6897 2.17944 59.0025 2.17944L64.6339 2.17959Z" fill="white"/>
<path d="M67.7635 2.17944C68.2502 2.17944 68.6501 2.5261 68.6501 3.01152C68.6501 3.49693 68.2502 3.84359 67.7635 3.84359C67.2769 3.84359 66.8774 3.49693 66.8774 3.01152C66.8774 2.5261 67.2769 2.17944 67.7635 2.17944ZM68.3199 6.53069C68.3199 6.20135 68.0763 5.94161 67.7462 5.94161C67.416 5.94161 67.173 6.20135 67.173 6.53069V13.6214C67.173 13.9508 67.416 14.2111 67.7462 14.2111C68.0763 14.2111 68.3199 13.9509 68.3199 13.6214V6.53069Z" fill="white"/>
<path d="M72.2474 13.6213C72.2474 13.9506 72.0044 14.2109 71.6736 14.2109C71.3435 14.2109 71.1005 13.9507 71.1005 13.6213V2.14459C71.1005 1.81526 71.3435 1.55493 71.6736 1.55493C72.0044 1.55493 72.2474 1.81511 72.2474 2.14459V13.6213Z" fill="white"/>
<path d="M75.6188 2.17944C76.1054 2.17944 76.5053 2.5261 76.5053 3.01152C76.5053 3.49693 76.1054 3.84359 75.6188 3.84359C75.1321 3.84359 74.7327 3.49693 74.7327 3.01152C74.7327 2.5261 75.1321 2.17944 75.6188 2.17944ZM76.1752 6.53069C76.1752 6.20135 75.9316 5.94161 75.6014 5.94161C75.2712 5.94161 75.0282 6.20135 75.0282 6.53069V13.6214C75.0282 13.9508 75.2712 14.2111 75.6014 14.2111C75.9316 14.2111 76.1752 13.9509 76.1752 13.6214V6.53069Z" fill="white"/>
<path d="M85.8565 12.6334C85.1269 13.6912 83.8928 14.2974 82.5197 14.2974C80.2084 14.2974 78.418 12.6161 78.418 10.0504C78.418 7.48419 80.2084 5.85469 82.5197 5.85469C84.8313 5.85469 86.4996 7.48419 86.4996 10.0504C86.4996 10.3625 86.2393 10.5877 85.9611 10.5877H79.6001C79.8085 12.1654 81.008 13.1534 82.5197 13.1534C83.6492 13.1534 84.3101 12.7198 84.8835 12.0438C85.0919 11.7836 85.4047 11.6453 85.6829 11.8359C85.9609 12.0093 86.0302 12.3559 85.8565 12.6334ZM85.318 9.51262C85.0917 7.96945 84.0146 6.99878 82.5197 6.99878C81.0078 6.99878 79.8257 7.9696 79.6001 9.51262H85.318ZM81.8766 4.34662C82.033 4.55453 82.2939 4.71061 82.624 4.71061C82.8324 4.71061 82.9542 4.60636 82.9542 4.43311C82.9542 4.34677 82.9022 4.24252 82.867 4.17293L81.9809 2.5261C81.8764 2.3182 81.6682 2.17944 81.4597 2.17944C81.0944 2.17944 80.6425 2.33552 80.6425 2.56061C80.6425 2.75119 80.7123 2.85544 80.8168 2.99419L81.8766 4.34662Z" fill="white"/>
<path d="M92.0628 7.01566C90.4114 7.01566 89.7337 8.95775 89.7337 11.1072V13.621C89.7337 13.9503 89.4901 14.2107 89.16 14.2107C88.8298 14.2107 88.5868 13.9505 88.5868 13.621V6.53024C88.5868 6.20091 88.8298 5.94117 89.16 5.94117C89.4901 5.94117 89.7337 6.20091 89.7337 6.53024V7.8655C90.1332 6.47841 90.8807 5.85425 92.0628 5.85425C92.4103 5.85425 92.7578 5.90608 93.0532 6.01032C93.366 6.11457 93.5225 6.42658 93.4181 6.73874C93.3136 7.05075 92.9835 7.13723 92.6707 7.0854C92.445 7.05075 92.2192 7.01566 92.0628 7.01566Z" fill="white"/>
<path d="M98.2675 14.297C95.9562 14.297 94.1658 12.6157 94.1658 10.05C94.1658 7.48374 95.9562 5.85425 98.2675 5.85425C100.579 5.85425 102.247 7.48374 102.247 10.05C102.247 10.362 101.987 10.5872 101.709 10.5872H95.3479C95.5563 12.1649 96.7558 13.1529 98.2675 13.1529C99.397 13.1529 100.058 12.7193 100.631 12.0433C100.84 11.7832 101.152 11.6448 101.431 11.8354C101.709 12.0087 101.778 12.3553 101.604 12.6329C100.875 13.6906 99.6406 14.297 98.2675 14.297ZM101.066 9.51217C100.84 7.96901 99.7625 6.99833 98.2676 6.99833C96.7558 6.99833 95.5737 7.96916 95.348 9.51217H101.066Z" fill="white"/>
<path d="M59.3852 30.4904C58.8288 30.4904 58.412 30.1092 58.412 29.4851V19.551C58.412 18.9268 58.8288 18.5457 59.3852 18.5457H62.9999C65.0334 18.5457 66.3195 19.7593 66.3195 21.701C66.3195 22.6372 65.9374 23.6771 64.7731 24.1279C66.1804 24.4399 66.9628 25.8443 66.9628 26.9884C66.9628 28.8781 65.6245 30.4904 63.3652 30.4904H59.3852ZM62.9305 23.4519C63.9038 23.4519 64.4076 22.6717 64.4076 21.77C64.4076 20.7992 63.7993 20.2447 62.8087 20.2447H60.2712V23.4519H62.9305ZM60.2713 25.0296V28.8091H63.2781C64.3904 28.8091 65.0334 27.8901 65.0334 26.9712C65.0334 26.0869 64.373 25.0297 63.2261 25.0297H60.2713V25.0296Z" fill="white"/>
<path d="M68.5278 26.4174C68.5278 23.8512 70.457 22.2217 72.7508 22.2217C75.0625 22.2217 77.009 23.8512 77.009 26.4174C77.009 28.9831 75.0626 30.6644 72.7508 30.6644C70.4568 30.6644 68.5278 28.9831 68.5278 26.4174ZM75.2363 26.4174C75.2363 24.9263 74.1068 23.9554 72.7508 23.9554C71.4128 23.9554 70.3005 24.9263 70.3005 26.4174C70.3005 27.9427 71.4128 28.9308 72.7508 28.9308C74.1066 28.9308 75.2363 27.9427 75.2363 26.4174Z" fill="white"/>
<path d="M79.8445 17.9912C80.5048 17.9912 81.0266 18.4766 81.0266 19.118C81.0266 19.7599 80.5048 20.2453 79.8445 20.2453C79.2014 20.2453 78.6456 19.7599 78.6456 19.118C78.6456 18.4766 79.2016 17.9912 79.8445 17.9912ZM80.7484 23.2096C80.7484 22.7242 80.3485 22.3085 79.8272 22.3085C79.3405 22.3085 78.9584 22.7244 78.9584 23.2096V29.6762C78.9584 30.1616 79.3405 30.5779 79.8272 30.5779C80.3484 30.5779 80.7484 30.1616 80.7484 29.6762V23.2096Z" fill="white"/>
<path d="M83.1975 27.8562C83.6321 27.6829 83.9623 27.908 84.1014 28.2029C84.4316 28.827 85.0573 29.1737 85.8567 29.1737C86.6735 29.1737 87.264 28.8097 87.264 28.2029C87.264 27.6829 86.76 27.4573 86.1695 27.3185L85.0745 27.0588C83.3538 26.5907 82.7281 25.6544 82.8326 24.3544C82.9365 23.1579 84.2399 22.2217 85.7348 22.2217C86.8124 22.2217 87.803 22.5683 88.3416 23.4182C88.5852 23.834 88.4633 24.2503 88.1851 24.4582C87.8896 24.7012 87.5248 24.6838 87.1426 24.3545C86.6907 23.9556 86.1693 23.7995 85.752 23.7995C85.3001 23.7995 84.7962 23.9556 84.6225 24.2331C84.4834 24.4583 84.466 24.6838 84.5527 24.9264C84.6572 25.2384 85.1438 25.3945 85.5783 25.5161L86.8298 25.8281C88.5851 26.2616 88.95 27.4057 88.95 28.2205C88.95 29.7808 87.5768 30.6647 85.7174 30.6647C84.466 30.6647 83.1973 30.0061 82.7627 28.8273C82.6237 28.3934 82.8148 27.9944 83.1975 27.8562Z" fill="white"/>
<path d="M61.8702 45.1777L64.286 36.8904C64.3385 36.6825 64.5122 36.5438 64.773 36.5438H64.8076C65.0506 36.5438 65.2423 36.6825 65.2943 36.8904L67.7101 45.1777L70.9599 35.3652C71.047 35.0532 71.3252 34.8798 71.6727 34.9663C71.9855 35.0532 72.1594 35.3652 72.0722 35.6774L68.3878 46.5298C68.2839 46.8592 68.0577 47.0675 67.7275 47.0675H67.6756C67.3454 47.0675 67.0844 46.8419 66.9979 46.5298L64.7903 38.9709L62.5829 46.5298C62.4958 46.8419 62.2354 47.0675 61.9048 47.0675H61.8529C61.5227 47.0675 61.2969 46.8592 61.1926 46.5298L57.5081 35.6774C57.421 35.3653 57.5948 35.0532 57.9076 34.9663C58.2556 34.8799 58.5333 35.0532 58.6205 35.3652L61.8702 45.1777Z" fill="white"/>
<path d="M80.9026 46.4782C80.9026 46.8075 80.659 47.0678 80.3288 47.0678C79.9987 47.0678 79.7557 46.8077 79.7557 46.4782V45.5938C79.1473 46.6169 77.8785 47.1542 76.697 47.1542C74.3853 47.1542 72.5427 45.4723 72.5427 42.9066C72.5427 40.3409 74.3851 38.7114 76.697 38.7114C77.8786 38.7114 79.1473 39.1968 79.7557 40.2195V39.3874C79.7557 39.0581 79.9987 38.7978 80.3288 38.7978C80.659 38.7978 80.9026 39.0579 80.9026 39.3874V46.4782ZM76.697 45.9929C78.3479 45.9929 79.7557 44.9007 79.7557 42.9067C79.7557 40.9133 78.1567 39.8728 76.697 39.8728C75.0109 39.8728 73.7076 41.052 73.7076 42.9067C73.7076 44.7099 75.011 45.9929 76.697 45.9929Z" fill="white"/>
<path d="M84.8319 46.478C84.8319 46.8074 84.5889 47.0677 84.2581 47.0677C83.928 47.0677 83.6849 46.8075 83.6849 46.478V35.0009C83.6849 34.6716 83.928 34.4119 84.2581 34.4119C84.5889 34.4119 84.8319 34.6716 84.8319 35.0009V46.478Z" fill="white"/>
<path d="M88.7957 46.478C88.7957 46.8074 88.5527 47.0677 88.222 47.0677C87.8918 47.0677 87.6488 46.8075 87.6488 46.478V35.0009C87.6488 34.6716 87.8918 34.4119 88.222 34.4119C88.5527 34.4119 88.7957 34.6716 88.7957 35.0009V46.478Z" fill="white"/>
<path d="M91.0554 42.9066C91.0554 40.3409 92.985 38.7114 95.2962 38.7114C97.6079 38.7114 99.537 40.3409 99.537 42.9066C99.537 45.4723 97.6079 47.1542 95.2962 47.1542C92.985 47.1542 91.0554 45.4724 91.0554 42.9066ZM98.3901 42.9066C98.3901 41.0341 96.9822 39.8555 95.2962 39.8555C93.6103 39.8555 92.2028 41.0342 92.2028 42.9066C92.2028 44.7789 93.6101 46.0101 95.2962 46.0101C96.9823 46.0101 98.3901 44.7791 98.3901 42.9066Z" fill="white"/>
<path d="M102.927 46.4782C102.927 46.8075 102.683 47.0678 102.353 47.0678C102.023 47.0678 101.78 46.8077 101.78 46.4782V39.3874C101.78 39.0581 102.023 38.7978 102.353 38.7978C102.683 38.7978 102.927 39.0579 102.927 39.3874V40.2195C103.431 39.1623 104.682 38.7114 105.621 38.7114C107.602 38.7114 108.766 40.0634 108.749 42.2652V46.4783C108.749 46.8077 108.506 47.068 108.175 47.068C107.845 47.068 107.602 46.8078 107.602 46.4783V42.2652C107.602 40.7745 106.872 39.8555 105.621 39.8555C104.335 39.8555 102.927 40.5839 102.927 42.5599V46.4782Z" fill="white"/>
<path d="M112.018 35.0354C112.505 35.0354 112.905 35.3821 112.905 35.8675C112.905 36.3529 112.505 36.6995 112.018 36.6995C111.532 36.6995 111.132 36.3529 111.132 35.8675C111.132 35.3821 111.532 35.0354 112.018 35.0354ZM112.575 39.3866C112.575 39.0573 112.331 38.797 112.001 38.797C111.671 38.797 111.428 39.0572 111.428 39.3866V46.4774C111.428 46.8067 111.671 47.0671 112.001 47.0671C112.331 47.0671 112.575 46.8069 112.575 46.4774V39.3866Z" fill="white"/>
<path d="M118.917 47.1542C116.606 47.1542 114.815 45.4723 114.815 42.9066C114.815 40.3409 116.606 38.7114 118.917 38.7114C121.229 38.7114 122.897 40.3409 122.897 42.9066C122.897 43.2186 122.637 43.4443 122.359 43.4443H115.998C116.206 45.0219 117.405 46.0099 118.917 46.0099C120.047 46.0099 120.708 45.5764 121.281 44.9004C121.489 44.6402 121.802 44.5014 122.08 44.6925C122.359 44.8657 122.428 45.2124 122.254 45.4899C121.524 46.5473 120.29 47.1542 118.917 47.1542ZM121.715 42.3695C121.489 40.8263 120.412 39.8557 118.917 39.8557C117.405 39.8557 116.223 40.8265 115.998 42.3695H121.715Z" fill="white"/>
</svg>
