<svg width="31" height="32" viewBox="0 0 31 32" fill="none" xmlns="http://www.w3.org/2000/svg">
<path d="M12.8075 22.5237L10.1028 19.5192H11.1398C11.4449 19.5192 11.7147 19.3532 11.8433 19.0856C11.972 18.8186 11.9297 18.5125 11.7323 18.2871L9.0872 15.2694H10.0653C10.3733 15.2694 10.651 15.0917 10.7715 14.8175C10.8906 14.5475 10.8344 14.2335 10.6279 14.018L6.89475 10.1174C6.6906 9.90325 6.30974 9.90325 6.10525 10.1174L2.37173 14.018C2.16521 14.2335 2.10935 14.5475 2.22818 14.8175C2.34871 15.0917 2.62666 15.2694 2.93474 15.2694H3.9128L1.26738 18.2877C1.07068 18.5129 1.02836 18.8186 1.15667 19.0859C1.28532 19.3532 1.55481 19.5192 1.86018 19.5192H2.89716L0.192484 22.5237C-0.0106457 22.7491 -0.0566885 23.0579 0.0719603 23.3291C0.198916 23.5964 0.47822 23.7691 0.783253 23.7691H5.41664V24.5809L4.39118 26.1878C4.21107 26.5411 4.4731 26.9568 4.87564 26.9568H8.12436C8.5269 26.9568 8.78893 26.5411 8.60882 26.1878L7.58336 24.5809V23.7691H12.2167C12.5218 23.7691 12.8011 23.5964 12.928 23.3291C13.0567 23.0579 13.0106 22.7491 12.8075 22.5237Z" fill="#C7D1D6"/>
<path d="M19.8075 18.2629L17.1028 15.0817H18.1398C18.4449 15.0817 18.7147 14.9059 18.8433 14.6226C18.972 14.3399 18.9297 14.0158 18.7323 13.7771L16.0872 10.5819H17.0653C17.3733 10.5819 17.651 10.3938 17.7715 10.1034C17.8906 9.81759 17.8344 9.48502 17.6279 9.25686L13.8947 5.12685C13.6906 4.9001 13.3097 4.9001 13.1053 5.12685L9.37173 9.25686C9.16521 9.48502 9.10935 9.81759 9.22818 10.1034C9.34871 10.3938 9.62666 10.5819 9.93474 10.5819H10.9128L8.26738 13.7778C8.07068 14.0162 8.02836 14.3399 8.15667 14.6229C8.28532 14.9059 8.55481 15.0817 8.86018 15.0817H9.89716L7.19248 18.2629C6.98935 18.5016 6.94331 18.8285 7.07196 19.1157C7.19892 19.3987 7.47822 19.5816 7.78325 19.5816H12.4166V20.4411L11.3912 22.1426C11.2111 22.5166 11.4731 22.9568 11.8756 22.9568H15.1244C15.5269 22.9568 15.7889 22.5166 15.6088 22.1426L14.5834 20.4411V19.5816H19.2167C19.5218 19.5816 19.8011 19.3987 19.928 19.1157C20.0567 18.8285 20.0106 18.5016 19.8075 18.2629Z" fill="#C7D1D6"/>
<path d="M25.7927 27.2629L22.88 24.0817H23.9967C24.3252 24.0817 24.6158 23.9059 24.7544 23.6226C24.8929 23.3399 24.8473 23.0158 24.6348 22.7771L21.7862 19.5819H22.8395C23.1713 19.5819 23.4703 19.3938 23.6001 19.1034C23.7284 18.8176 23.6679 18.485 23.4455 18.2569L19.4251 14.1268C19.2053 13.9001 18.7951 13.9001 18.5749 14.1268L14.5542 18.2569C14.3318 18.485 14.2716 18.8176 14.3996 19.1034C14.5294 19.3938 14.8287 19.5819 15.1605 19.5819H16.2138L13.3649 22.7778C13.153 23.0162 13.1075 23.3399 13.2456 23.6229C13.3842 23.9059 13.6744 24.0817 14.0033 24.0817H15.12L12.2073 27.2629C11.9885 27.5016 11.939 27.8285 12.0775 28.1157C12.2142 28.3987 12.515 28.5816 12.8435 28.5816H17.8333V29.4411L16.729 31.1426C16.535 31.5166 16.8172 31.9568 17.2507 31.9568H20.7493C21.1828 31.9568 21.465 31.5166 21.271 31.1426L20.1667 29.4411V28.5816H25.1565C25.485 28.5816 25.7858 28.3987 25.9225 28.1157C26.061 27.8285 26.0115 27.5016 25.7927 27.2629Z" fill="#C7D1D6"/>
<path d="M30.7927 14.2629L27.88 11.0817H28.9967C29.3252 11.0817 29.6158 10.9059 29.7544 10.6226C29.8929 10.3399 29.8473 10.0158 29.6348 9.7771L26.7862 6.58186H27.8395C28.1713 6.58186 28.4703 6.39378 28.6001 6.1034C28.7284 5.81759 28.6679 5.48502 28.4455 5.25686L24.4251 1.12685C24.2053 0.9001 23.7951 0.9001 23.5749 1.12685L19.5542 5.25686C19.3318 5.48502 19.2716 5.81759 19.3996 6.1034C19.5294 6.39378 19.8287 6.58186 20.1605 6.58186H21.2138L18.3649 9.7778C18.153 10.0162 18.1075 10.3399 18.2456 10.6229C18.3842 10.9059 18.6744 11.0817 19.0033 11.0817H20.12L17.2073 14.2629C16.9885 14.5016 16.939 14.8285 17.0775 15.1157C17.2142 15.3987 17.515 15.5816 17.8435 15.5816H22.8333V16.4411L21.729 18.1426C21.535 18.5166 21.8172 18.9568 22.2507 18.9568H25.7493C26.1828 18.9568 26.465 18.5166 26.271 18.1426L25.1667 16.4411V15.5816H30.1565C30.485 15.5816 30.7858 15.3987 30.9225 15.1157C31.061 14.8285 31.0115 14.5016 30.7927 14.2629Z" fill="#C7D1D6"/>
</svg>
