<svg width="19" height="26" viewBox="0 0 19 26" fill="none" xmlns="http://www.w3.org/2000/svg">
<path d="M18.472 18.7203L14.5711 14.3019H16.0667C16.5066 14.3019 16.8958 14.0577 17.0813 13.6642C17.2669 13.2716 17.2058 12.8214 16.9212 12.4899L13.1062 8.05188H14.5169C14.9612 8.05188 15.3616 7.79065 15.5354 7.38733C15.7073 6.99036 15.6262 6.52844 15.3284 6.21155L9.94412 0.47522C9.64968 0.160278 9.10037 0.160278 8.80545 0.47522L3.42068 6.21155C3.12283 6.52844 3.04226 6.99036 3.21365 7.38733C3.38748 7.79065 3.78836 8.05188 4.23269 8.05188H5.64334L1.82791 12.4908C1.54422 12.8219 1.48318 13.2716 1.66824 13.6647C1.85379 14.0577 2.24246 14.3019 2.68289 14.3019H4.17849L0.277615 18.7203C-0.0153541 19.0519 -0.0817603 19.506 0.103787 19.9049C0.286892 20.298 0.689724 20.5519 1.12967 20.5519H7.81228V21.7457L6.33328 24.109C6.07351 24.6285 6.45144 25.2399 7.03201 25.2399H11.7176C12.2981 25.2399 12.6761 24.6285 12.4163 24.109L10.9373 21.7457V20.5519H17.6199C18.0598 20.5519 18.4627 20.298 18.6458 19.9049C18.8313 19.506 18.7649 19.0519 18.472 18.7203Z" fill="#C7D1D6"/>
</svg>
