<svg width="22" height="26" viewBox="0 0 22 26" fill="none" xmlns="http://www.w3.org/2000/svg">
<path d="M10.9375 12.9788C14.3896 12.9788 17.1875 10.1809 17.1875 6.72876C17.1875 3.27661 14.3896 0.47876 10.9375 0.47876C7.48535 0.47876 4.6875 3.27661 4.6875 6.72876C4.6875 10.1809 7.48535 12.9788 10.9375 12.9788ZM15.6152 14.5706L13.2812 23.9163L11.7188 17.2756L13.2812 14.5413H8.59375L10.1562 17.2756L8.59375 23.9163L6.25977 14.5706C2.77832 14.7366 0 17.5833 0 21.1038V23.135C0 24.429 1.0498 25.4788 2.34375 25.4788H19.5312C20.8252 25.4788 21.875 24.429 21.875 23.135V21.1038C21.875 17.5833 19.0967 14.7366 15.6152 14.5706Z" fill="#C7D1D6"/>
</svg>
