<svg width="30" height="23" viewBox="0 0 30 23" fill="none" xmlns="http://www.w3.org/2000/svg">
<path d="M20.5093 9.81686L22.6037 7.76377L22.6296 8.52268C22.6372 8.74592 22.7634 8.93932 22.9591 9.02691C23.1544 9.11452 23.3737 9.07604 23.5309 8.92607L25.6364 6.91625L25.6608 7.63206C25.6685 7.85752 25.8032 8.05634 26.0035 8.13782C26.2008 8.21842 26.4254 8.16958 26.5753 8.01316L29.2888 5.18537C29.4378 5.03072 29.4283 4.75198 29.2691 4.60758L26.3693 1.97084C26.2091 1.82498 25.9817 1.7918 25.7905 1.88539C25.5961 1.98032 25.4753 2.18809 25.4829 2.41356L25.5073 3.12936L23.2695 1.26732C23.1026 1.12888 22.8815 1.10541 22.6924 1.20587C22.5033 1.30658 22.3905 1.50787 22.3982 1.73136L22.424 2.49027L20.1947 0.584523C20.0274 0.441391 19.8041 0.415266 19.6121 0.516069C19.423 0.615536 19.3057 0.824179 19.3133 1.04742L19.4289 4.43837L18.8447 4.45828L17.6629 3.7472C17.4042 3.62405 17.1116 3.82601 17.1216 4.12061L17.2027 6.49819C17.2127 6.79279 17.5183 6.97437 17.768 6.83389L18.8988 6.044L19.4829 6.02409L19.5985 9.41505C19.6061 9.63829 19.7373 9.83846 19.9327 9.92482C20.1311 10.0123 20.3522 9.97105 20.5093 9.81686Z" fill="white"/>
<path d="M23.8477 16.7175C23.9492 16.1667 23.9492 15.6042 23.8477 15.0535L24.8555 14.4714C24.9727 14.405 25.0234 14.2683 24.9844 14.1394C24.7227 13.2957 24.2734 12.53 23.6875 11.8972C23.5977 11.7996 23.4531 11.7761 23.3359 11.8425L22.3281 12.4246C21.9023 12.0613 21.4141 11.78 20.8867 11.5925V10.4285C20.8867 10.2957 20.793 10.1785 20.6641 10.1511C19.793 9.95581 18.9062 9.96362 18.0781 10.1511C17.9492 10.1785 17.8555 10.2957 17.8555 10.4285V11.5925C17.3281 11.78 16.8398 12.0613 16.4141 12.4246L15.4062 11.8425C15.293 11.7761 15.1445 11.7996 15.0547 11.8972C14.4688 12.53 14.0195 13.2957 13.7578 14.1394C13.7188 14.2683 13.7734 14.405 13.8867 14.4714L14.8945 15.0535C14.793 15.6042 14.793 16.1667 14.8945 16.7175L13.8867 17.2996C13.7695 17.366 13.7188 17.5027 13.7578 17.6316C14.0195 18.4753 14.4688 19.2371 15.0547 19.8738C15.1445 19.9714 15.2891 19.9949 15.4062 19.9285L16.4141 19.3464C16.8398 19.7097 17.3281 19.991 17.8555 20.1785V21.3425C17.8555 21.4753 17.9492 21.5925 18.0781 21.6199C18.9492 21.8152 19.8359 21.8074 20.6641 21.6199C20.793 21.5925 20.8867 21.4753 20.8867 21.3425V20.1785C21.4141 19.991 21.9023 19.7097 22.3281 19.3464L23.3359 19.9285C23.4492 19.9949 23.5977 19.9714 23.6875 19.8738C24.2734 19.241 24.7227 18.4753 24.9844 17.6316C25.0234 17.5027 24.9688 17.366 24.8555 17.2996L23.8477 16.7175ZM19.375 17.78C18.3281 17.78 17.4805 16.9285 17.4805 15.8855C17.4805 14.8425 18.332 13.991 19.375 13.991C20.418 13.991 21.2695 14.8425 21.2695 15.8855C21.2695 16.9285 20.4219 17.78 19.375 17.78ZM8.75 12.1355C11.5117 12.1355 13.75 9.89722 13.75 7.1355C13.75 4.37378 11.5117 2.1355 8.75 2.1355C5.98828 2.1355 3.75 4.37378 3.75 7.1355C3.75 9.89722 5.98828 12.1355 8.75 12.1355ZM16.6094 20.9832C16.5195 20.9363 16.4297 20.8816 16.3438 20.8308L16.0352 21.0105C15.8008 21.1433 15.5352 21.2175 15.2695 21.2175C14.8438 21.2175 14.4336 21.0378 14.1406 20.7253C13.4258 19.9519 12.8789 19.0105 12.5703 18.0066C12.3555 17.3152 12.6445 16.5847 13.2695 16.2214L13.5781 16.0417C13.5742 15.9402 13.5742 15.8386 13.5781 15.7371L13.2695 15.5574C12.6445 15.198 12.3555 14.4636 12.5703 13.7722C12.6055 13.6589 12.6562 13.5457 12.6953 13.4324C12.5469 13.4207 12.4023 13.3855 12.25 13.3855H11.5977C10.7305 13.7839 9.76562 14.0105 8.75 14.0105C7.73438 14.0105 6.77344 13.7839 5.90234 13.3855H5.25C2.35156 13.3855 0 15.7371 0 18.6355V20.2605C0 21.2957 0.839844 22.1355 1.875 22.1355H15.625C16.0195 22.1355 16.3867 22.0105 16.6875 21.8035C16.6406 21.655 16.6094 21.5027 16.6094 21.3425V20.9832Z" fill="white"/>
</svg>
