<svg width="25" height="23" viewBox="0 0 25 23" fill="none" xmlns="http://www.w3.org/2000/svg">
<path d="M12.5 0.674316C9.4796 0.674316 7.03125 3.12267 7.03125 6.14307C7.03125 8.58491 10.6055 13.0354 11.9748 14.6509C12.2522 14.9781 12.7483 14.9781 13.0252 14.6509C14.3945 13.0354 17.9688 8.58491 17.9688 6.14307C17.9688 3.12267 15.5204 0.674316 12.5 0.674316ZM0.873264 10.0471C0.615529 10.1502 0.394588 10.3282 0.238936 10.558C0.083285 10.7879 6.17278e-05 11.0591 0 11.3366L0 22.2012C0 22.6925 0.496094 23.0285 0.952257 22.8462L6.94444 20.1188V10.0024C6.56076 9.30886 6.24696 8.63352 6.02214 7.98768L0.873264 10.0471ZM12.5 16.285C11.8893 16.285 11.3116 16.0168 10.9154 15.5489C10.0621 14.5419 9.15451 13.3952 8.33333 12.219V20.1183L16.6667 22.8961V12.2195C15.8455 13.3952 14.9384 14.5424 14.0846 15.5493C13.6884 16.0168 13.1107 16.285 12.5 16.285ZM24.0477 7.66911L18.0556 10.3965V22.8965L24.1267 20.4682C24.3845 20.3651 24.6055 20.1872 24.7611 19.9573C24.9168 19.7275 25 19.4563 25 19.1787V8.31407C25 7.82275 24.5039 7.48682 24.0477 7.66911Z" fill="#C7D1D6"/>
</svg>
